<svg id="logo-svg" viewBox="0 0 190 50" xmlns="http://www.w3.org/2000/svg" width="190" height="50"><path stroke="#fff" stroke-width="4" d="M65.3 35.75h-4.6l-1.6-5.5h-6.8l-1.6 5.5h-4.4l6.7-22.4h5.5l6.8 22.4zm-7.1-9.1l-2.5-9.201-2.5 9.201h5z" fill="none"></path><path stroke="#fff" stroke-width="4" d="M79.8 35.75h-3.1l-.6-1.801c-1.8 1.301-3.4 2-4.9 2s-2.7-.699-3.6-2.1-1.4-3.4-1.4-6.1c0-2.7.5-4.801 1.6-6.2 1.1-1.4 2.5-2.102 4.2-2.102 1.2 0 2.4.5 3.7 1.602v-7.7h4.1v22.401zm-4.2-4.9v-6.4c-1.1-.899-2.1-1.399-2.8-1.399-.8 0-1.4.399-1.8 1.199-.5.801-.7 2-.7 3.5 0 3 .8 4.5 2.4 4.5.8 0 1.8-.4 2.9-1.4z" fill="none"></path><path stroke="#fff" stroke-width="4" d="M97.1 35.75h-3.1l-.6-1.801c-1.801 1.301-3.4 2-4.9 2s-2.7-.699-3.6-2.1-1.4-3.4-1.4-6.1c0-2.7.5-4.801 1.6-6.2 1.1-1.4 2.5-2.102 4.2-2.102 1.2 0 2.4.5 3.7 1.602v-7.7h4.1v22.401zm-4.1-4.9v-6.4c-1.1-.899-2.1-1.399-2.8-1.399-.8 0-1.4.399-1.8 1.199-.5.801-.7 2-.7 3.5 0 3 .8 4.5 2.4 4.5.7 0 1.7-.4 2.9-1.4z" fill="none"></path><path stroke="#fff" stroke-width="4" d="M105.5 35.75v-18.6h-5.2v-3.7h14.8v3.7h-5.1v18.7h-4.5v-.1z" fill="none"></path><path stroke="#fff" stroke-width="4" d="M129.6 27.85c0 2.6-.6 4.6-2 6-1.3 1.5-3.1 2.201-5.5 2.201-2.398 0-4.199-.701-5.398-2.201-1.2-1.4-1.9-3.5-1.9-6s.602-4.6 1.9-6.1c1.199-1.5 3-2.199 5.3-2.199s4.2.8 5.5 2.3 2.098 3.399 2.098 5.999zm-4.3-.1c0-3.3-1-4.899-3.1-4.899-2.101 0-3.2 1.6-3.2 4.899 0 3.199 1.1 4.9 3.2 4.9 1.2 0 2-.4 2.399-1.201.501-.898.701-2.099.701-3.699z" fill="none"></path><path stroke="#fff" stroke-width="4" d="M149.4 35.75h-4.6l-1.6-5.5h-6.8l-1.602 5.5h-4.398l6.699-22.4h5.5l6.801 22.4zm-7.1-9.1l-2.5-9.201-2.5 9.201h5z" fill="none"></path><path stroke="#fff" stroke-width="4" d="M165.3 35.75h-4.2v-9.6c0-.901-.199-1.6-.5-2.1-.3-.5-.898-.801-1.699-.801s-1.801.5-2.899 1.5v11h-4.2v-16h3.5l.7 1.399c.899-.7 1.7-1.101 2.399-1.399.699-.199 1.5-.399 2.399-.399 1.4 0 2.601.5 3.4 1.399.8 1 1.2 2.399 1.2 4.199v10.802h-.1z" fill="none"></path><path stroke="#fff" stroke-width="4" d="M173.2 36.15l-5.2-16.3h4.2l3.1 11 3.101-11h4.101l-5.3 16c-.7 2-1.5 3.5-2.5 4.701-1 1.199-2.301 2.1-3.801 2.799l-1.5-2.9c.899-.398 1.699-.898 2.399-1.6.7-.799 1.2-1.7 1.4-2.7z" fill="none"></path><path fill="#2A2A2A" d="M65.3 35.75h-4.6l-1.6-5.5h-6.8l-1.6 5.5h-4.4l6.7-22.4h5.5l6.8 22.4zm-7.1-9.1l-2.5-9.201-2.5 9.201h5z"></path><path fill="#2A2A2A" d="M79.8 35.75h-3.1l-.6-1.801c-1.8 1.301-3.4 2-4.9 2s-2.7-.699-3.6-2.1-1.4-3.4-1.4-6.1c0-2.7.5-4.801 1.6-6.2 1.1-1.4 2.5-2.102 4.2-2.102 1.2 0 2.4.5 3.7 1.602v-7.7h4.1v22.401zm-4.2-4.9v-6.4c-1.1-.899-2.1-1.399-2.8-1.399-.8 0-1.4.399-1.8 1.199-.5.801-.7 2-.7 3.5 0 3 .8 4.5 2.4 4.5.8 0 1.8-.4 2.9-1.4z"></path><path fill="#2A2A2A" d="M97.1 35.75h-3.1l-.6-1.801c-1.801 1.301-3.4 2-4.9 2s-2.7-.699-3.6-2.1-1.4-3.4-1.4-6.1c0-2.7.5-4.801 1.6-6.2 1.1-1.4 2.5-2.102 4.2-2.102 1.2 0 2.4.5 3.7 1.602v-7.7h4.1v22.401zm-4.1-4.9v-6.4c-1.1-.899-2.1-1.399-2.8-1.399-.8 0-1.4.399-1.8 1.199-.5.801-.7 2-.7 3.5 0 3 .8 4.5 2.4 4.5.7 0 1.7-.4 2.9-1.4z"></path><path fill="#2A2A2A" d="M105.5 35.75v-18.6h-5.2v-3.7h14.8v3.7h-5.1v18.7h-4.5v-.1z"></path><path fill="#2A2A2A" d="M129.6 27.85c0 2.6-.6 4.6-2 6-1.3 1.5-3.1 2.201-5.5 2.201-2.398 0-4.199-.701-5.398-2.201-1.2-1.4-1.9-3.5-1.9-6s.602-4.6 1.9-6.1c1.199-1.5 3-2.199 5.3-2.199s4.2.8 5.5 2.3 2.098 3.399 2.098 5.999zm-4.3-.1c0-3.3-1-4.899-3.1-4.899-2.101 0-3.2 1.6-3.2 4.899 0 3.199 1.1 4.9 3.2 4.9 1.2 0 2-.4 2.399-1.201.501-.898.701-2.099.701-3.699z"></path><path fill="#2A2A2A" d="M149.4 35.75h-4.6l-1.6-5.5h-6.8l-1.602 5.5h-4.398l6.699-22.4h5.5l6.801 22.4zm-7.1-9.1l-2.5-9.201-2.5 9.201h5z"></path><path fill="#2A2A2A" d="M165.3 35.75h-4.2v-9.6c0-.901-.199-1.6-.5-2.1-.3-.5-.898-.801-1.699-.801s-1.801.5-2.899 1.5v11h-4.2v-16h3.5l.7 1.399c.899-.7 1.7-1.101 2.399-1.399.699-.199 1.5-.399 2.399-.399 1.4 0 2.601.5 3.4 1.399.8 1 1.2 2.399 1.2 4.199v10.802h-.1z"></path><path fill="#2A2A2A" d="M173.2 36.15l-5.2-16.3h4.2l3.1 11 3.101-11h4.101l-5.3 16c-.7 2-1.5 3.5-2.5 4.701-1 1.199-2.301 2.1-3.801 2.799l-1.5-2.9c.899-.398 1.699-.898 2.399-1.6.7-.799 1.2-1.7 1.4-2.7z"></path>
<path stroke="#fff" stroke-width="4" d="M41 35.051c0 3.1-2.5 5.6-5.6 5.6h-20.8c-3.1 0-5.6-2.5-5.6-5.6v-20.801c0-3.1 2.5-5.6 5.6-5.6h20.8c3.1 0 5.6 2.5 5.6 5.6v20.801z" fill="none"></path><path fill="#0166FF" d="M41 35.051c0 3.1-2.5 5.6-5.6 5.6h-20.8c-3.1 0-5.6-2.5-5.6-5.6v-20.801c0-3.1 2.5-5.6 5.6-5.6h20.8c3.1 0 5.6 2.5 5.6 5.6v20.801z"></path><rect x="23" y="16.65" fill="#fff" width="4" height="16"></rect><rect x="17" y="22.65" fill="#fff" width="16" height="4"></rect></svg>